<?xml version="1.0" encoding="UTF-8" standalone="no"?>
<!-- Created with Inkscape (http://www.inkscape.org/) -->

<svg
   version="1.1"
   id="svg2"
   width="839.38666"
   height="372.42667"
   viewBox="0 0 839.38666 372.42667"
   sodipodi:docname="william-and-mary-seeklogo.eps"
   xmlns:inkscape="http://www.inkscape.org/namespaces/inkscape"
   xmlns:sodipodi="http://sodipodi.sourceforge.net/DTD/sodipodi-0.dtd"
   xmlns="http://www.w3.org/2000/svg"
   xmlns:svg="http://www.w3.org/2000/svg">
  <defs
     id="defs6" />
  <sodipodi:namedview
     id="namedview4"
     pagecolor="#ffffff"
     bordercolor="#000000"
     borderopacity="0.25"
     inkscape:showpageshadow="2"
     inkscape:pageopacity="0.0"
     inkscape:pagecheckerboard="0"
     inkscape:deskcolor="#d1d1d1" />
  <g
     id="g8"
     inkscape:groupmode="layer"
     inkscape:label="ink_ext_XXXXXX"
     transform="matrix(1.3333333,0,0,-1.3333333,0,372.42667)">
    <g
       id="g10"
       transform="scale(0.1)">
      <path
         d="m 751.035,976.359 v 15.313 h 206.289 v -15.313 h -9.648 c -22.188,0 -36.719,-1.82 -43.578,-5.468 -6.879,-3.661 -11.485,-10.493 -13.817,-20.481 -2.328,-9.98 -3.496,-33.711 -3.496,-71.199 v -221.25 c 0,-35.5 0.832,-58.742 2.488,-69.723 1.672,-10.976 6.11,-19.136 13.317,-24.437 7.211,-5.34 21.015,-7.992 41.43,-7.992 h 13.304 V 540.488 H 751.035 v 15.321 h 13.305 c 19.308,0 32.656,2.429 40.094,7.312 7.421,4.859 12.148,12.469 14.14,22.789 1.992,10.301 2.996,34.301 2.996,72.051 v 221.25 c 0,35.918 -1.004,59.109 -2.996,69.551 -1.992,10.429 -6.433,17.617 -13.308,21.617 -6.883,3.98 -21.75,5.98 -44.59,5.98 h -9.641"
         style="fill:#174935;fill-opacity:1;fill-rule:nonzero;stroke:none"
         id="path12" />
      <path
         d="m 1380.55,673.262 -3.32,-132.774 H 993.926 v 15.321 h 13.314 c 19.29,0 32.64,2.429 40.09,7.312 7.43,4.859 12.2,12.469 14.31,22.789 2.11,10.32 3.15,34.309 3.15,72.051 v 221.25 c 0,35.918 -1.04,59.109 -3.15,69.551 -2.11,10.429 -6.55,17.617 -13.31,21.617 -6.77,3.98 -21.57,5.992 -44.42,5.992 h -9.984 v 15.301 h 216.604 v -15.301 h -19.96 c -22.19,0 -36.73,-1.832 -43.58,-5.5 -6.88,-3.652 -11.48,-10.461 -13.82,-20.449 -2.32,-9.992 -3.49,-33.723 -3.49,-71.211 V 642.969 c 0,-32.59 0.88,-53.008 2.66,-61.219 1.78,-8.199 6.6,-14.578 14.48,-19.129 7.87,-4.539 24.79,-6.812 50.74,-6.812 h 34.26 c 27.74,0 48.31,2.429 61.73,7.312 13.41,4.859 26.17,15.508 38.26,31.938 12.09,16.421 23.13,42.48 33.11,78.203 h 15.63"
         style="fill:#174935;fill-opacity:1;fill-rule:nonzero;stroke:none"
         id="path14" />
      <path
         d="m 1792.15,673.262 -3.34,-132.774 h -383.3 v 15.321 h 13.31 c 19.3,0 32.64,2.429 40.1,7.312 7.42,4.859 12.19,12.469 14.3,22.789 2.1,10.32 3.17,34.309 3.17,72.051 v 221.25 c 0,35.918 -1.07,59.109 -3.17,69.551 -2.11,10.429 -6.55,17.617 -13.31,21.617 -6.77,3.98 -21.58,5.992 -44.42,5.992 h -9.98 v 15.301 h 216.61 v -15.301 h -19.97 c -22.18,0 -36.71,-1.832 -43.58,-5.5 -6.88,-3.652 -11.48,-10.461 -13.79,-20.449 -2.35,-9.992 -3.51,-33.723 -3.51,-71.211 V 642.969 c 0,-32.59 0.88,-53.008 2.66,-61.219 1.77,-8.199 6.6,-14.578 14.48,-19.129 7.86,-4.539 24.78,-6.812 50.74,-6.812 h 34.26 c 27.73,0 48.3,2.429 61.72,7.312 13.42,4.859 26.16,15.508 38.28,31.938 12.08,16.421 23.12,42.48 33.1,78.203 h 15.64"
         style="fill:#174935;fill-opacity:1;fill-rule:nonzero;stroke:none"
         id="path16" />
      <path
         d="m 1815.44,976.359 v 15.313 h 206.29 v -15.313 h -9.65 c -22.19,0 -36.72,-1.82 -43.59,-5.468 -6.88,-3.661 -11.48,-10.493 -13.8,-20.481 -2.34,-9.98 -3.5,-33.711 -3.5,-71.199 v -221.25 c 0,-35.5 0.84,-58.742 2.5,-69.723 1.67,-10.976 6.09,-19.136 13.3,-24.437 7.21,-5.34 21.02,-7.992 41.43,-7.992 h 13.31 v -15.321 h -206.29 v 15.321 h 13.31 c 19.28,0 32.66,2.429 40.09,7.312 7.43,4.859 12.15,12.469 14.14,22.789 2,10.301 2.99,34.301 2.99,72.051 v 221.25 c 0,35.918 -0.99,59.109 -2.99,69.551 -1.99,10.429 -6.44,17.617 -13.31,21.617 -6.88,3.98 -21.74,5.98 -44.58,5.98 h -9.65"
         style="fill:#174935;fill-opacity:1;fill-rule:nonzero;stroke:none"
         id="path18" />
      <path
         d="m 2341.15,721.82 -79.87,192.328 -79.53,-192.328 z m 5.64,-14.949 h -171.35 l -11.64,-28.633 c -17.32,-41.488 -25.95,-68.539 -25.95,-81.168 0,-13.519 4.58,-23.808 13.79,-30.781 9.21,-7.008 21.02,-10.48 35.45,-10.48 v -15.321 h -134.1 v 15.321 c 19.96,3.089 34.82,10.132 44.59,21.121 9.75,11 21.52,34.09 35.26,69.371 1.12,3.32 6.43,16.179 15.97,38.597 l 131.09,313.09 h 13 l 150.71,-358.347 20.64,-47.243 c 4.66,-10.648 10.91,-19.019 18.79,-25.136 7.88,-6.102 19.68,-9.91 35.45,-11.453 v -15.321 h -177.34 v 15.321 c 21.71,0 36.41,1.601 44.06,4.812 7.66,3.199 11.49,9.59 11.49,19.129 0,4.879 -5.1,19.422 -15.31,43.602 l -34.6,83.519"
         style="fill:#174935;fill-opacity:1;fill-rule:nonzero;stroke:none"
         id="path20" />
      <path
         d="m 2857.51,618.328 164.36,373.344 h 138.43 v -15.301 h -16.66 c -22.17,0 -36.7,-1.832 -43.58,-5.5 -6.87,-3.652 -11.47,-10.461 -13.8,-20.461 -2.33,-9.98 -3.48,-33.711 -3.48,-71.199 v -221.25 c 0,-35.512 0.87,-58.742 2.65,-69.723 1.76,-10.988 6.27,-19.136 13.48,-24.437 7.19,-5.34 21,-7.992 41.42,-7.992 h 19.97 v -15.321 h -215.61 v 15.321 h 15.97 c 19.08,0 32.33,2.429 39.76,7.312 7.42,4.859 12.18,12.469 14.3,22.789 2.1,10.32 3.17,34.309 3.17,72.051 V 945.102 L 2839.22,540.488 h -15.66 l -180,404.614 V 680.891 c 0,-36.141 1.11,-60.77 3.32,-73.86 2.22,-13.09 9.11,-24.57 20.64,-34.441 11.54,-9.86 27.73,-15.469 48.57,-16.781 v -15.321 h -161.36 v 15.321 c 19.3,1.113 34.99,6.339 47.07,15.793 12.09,9.418 19.46,21.007 22.14,34.769 2.65,13.75 3.99,39.258 3.99,76.52 v 196.32 c 0,35.918 -1.07,59.109 -3.16,69.551 -2.11,10.429 -6.56,17.617 -13.32,21.617 -6.77,3.98 -21.58,5.992 -44.42,5.992 h -12.3 v 15.301 h 137.42 l 165.36,-373.344"
         style="fill:#174935;fill-opacity:1;fill-rule:nonzero;stroke:none"
         id="path22" />
      <path
         d="m 3476.57,869.301 c -11.72,25.289 -17.61,48.859 -17.61,70.75 0,24.758 7.3,47.758 21.91,69.029 14.6,21.2 33.16,38.36 55.71,51.39 22.55,13.01 45.93,19.54 70.19,19.54 27.08,0 49.72,-7.49 67.82,-22.47 18.12,-14.99 27.16,-32.91 27.16,-53.74 0,-15.652 -4.34,-30.14 -13.09,-43.402 -8.72,-13.308 -17.91,-19.968 -27.57,-19.968 -4.66,0 -7.01,2.48 -7.01,7.441 0,1.801 1.29,5.867 3.89,12.129 4.17,10.129 6.25,20.441 6.25,30.859 0,15.641 -6.37,28.361 -19.16,38.131 -12.77,9.8 -28.15,14.67 -46.12,14.67 -28.95,0 -55.96,-11.93 -81.12,-35.77 -25.17,-23.839 -37.72,-51.171 -37.72,-81.91 0,-13.839 1.8,-25.5 5.45,-35 3.67,-9.5 7,-15.699 10,-18.55 2.99,-2.879 7.19,-4.321 12.7,-4.321 35.97,0 53.94,-10.41 53.94,-31.269 0,-5.211 -1.9,-10.168 -5.66,-14.86 -3.8,-4.699 -9.34,-7.019 -16.61,-7.019 -8.1,0 -18.41,5.309 -30.93,16.008 -13.25,11.472 -26.28,17.191 -39.07,17.191 -16.41,0 -32.01,-8.14 -46.72,-24.41 -14.71,-16.309 -22.11,-35.672 -22.11,-58.059 0,-43.55 21.64,-84.66 64.95,-123.363 43.25,-38.687 97.07,-58.066 161.46,-58.066 60.98,0 113.14,15.199 156.58,45.558 43.37,30.36 65.08,66.66 65.08,108.891 0,28.117 -10.7,52.59 -32.08,73.32 -21.36,20.68 -50.29,31.059 -86.76,31.059 -29.47,0 -55.73,-8.078 -78.8,-24.25 -23.06,-16.149 -34.61,-36.34 -34.61,-60.559 0,-14.621 4.17,-26.601 12.51,-35.992 8.35,-9.367 16.94,-14.059 25.83,-14.059 10.14,0 15.23,5.461 15.23,16.399 l -0.4,4.68 c -0.26,3.41 -0.37,5.742 -0.37,7.05 0,11.481 3.13,20.93 9.38,28.34 6.27,7.442 14.18,11.153 23.83,11.153 9.13,0 17.08,-3.204 23.86,-9.571 6.78,-6.402 10.17,-15.312 10.17,-26.781 0,-16.449 -5.68,-30.129 -17,-41.078 -11.35,-10.922 -25.88,-16.391 -43.62,-16.391 -21.08,0 -39.28,7.481 -54.52,22.449 -15.23,15 -22.87,33.469 -22.87,55.34 0,32.039 13.41,61.258 40.28,87.578 26.84,26.332 75.57,39.481 146.2,39.481 63.35,0 109.36,8.73 138.02,26.199 28.66,17.211 43.02,43.383 43.02,78.582 0,20.83 -6.4,37.98 -19.17,51.41 -12.78,13.43 -28.92,20.14 -48.5,20.14 -9.64,0 -16.85,-1.39 -21.67,-4.09 -4.82,-2.77 -7.24,-7.01 -7.24,-12.73 0,-3.67 2.34,-8.87 7.02,-15.63 5.99,-8.62 9,-16.96 9,-25.03 0,-9.64 -3.71,-18.121 -11.13,-25.39 -7.44,-7.309 -16.63,-10.969 -27.57,-10.969 -13.05,0 -22.95,4.168 -29.71,12.508 -6.79,8.351 -10.16,18.109 -10.16,29.311 0,17.72 8.68,33.64 26,47.7 17.33,14.08 39.41,21.12 66.26,21.12 27.63,0 50.62,-10.09 69.01,-30.29 18.36,-20.21 27.57,-44.52 27.57,-72.931 0,-26.82 -7.91,-51.348 -23.66,-73.48 -15.77,-22.161 -35.72,-37.809 -59.81,-46.938 -24.13,-9.133 -57.94,-14.473 -101.46,-16.012 41.69,-29.468 62.53,-67.25 62.53,-113.371 0,-34.679 -12.75,-68.187 -38.3,-100.488 -25.53,-32.32 -56.48,-56.301 -92.85,-71.941 -36.37,-15.629 -80.74,-23.457 -133.14,-23.457 -42.45,0 -76.87,4.617 -103.2,13.867 -26.33,9.25 -51.39,22.75 -75.25,40.472 -23.86,17.731 -42.62,39.438 -56.31,65.11 -13.68,25.66 -20.53,53.23 -20.53,82.699 0,35.961 10.3,66.191 30.88,90.691 20.59,24.489 51.1,39.598 91.5,45.36"
         style="fill:#174935;fill-opacity:1;fill-rule:nonzero;stroke:none"
         id="path24" />
      <path
         d="m 4515.93,633.609 196.63,446.601 h 165.55 v -18.31 h -19.9 c -26.51,0 -43.91,-2.18 -52.15,-6.55 -8.2,-4.39 -13.7,-12.57 -16.49,-24.48 -2.8,-11.94 -4.19,-40.339 -4.19,-85.179 V 680.988 c 0,-42.468 1.08,-70.226 3.19,-83.398 2.12,-13.102 7.5,-22.86 16.11,-29.238 8.61,-6.372 25.16,-9.551 49.59,-9.551 h 23.84 v -18.313 h -257.89 v 18.313 h 19.1 c 22.83,0 38.66,2.918 47.56,8.75 8.89,5.847 14.59,14.929 17.12,27.258 2.53,12.332 3.8,41.07 3.8,86.179 V 1024.51 L 4494.05,540.488 h -18.71 L 4259.98,1024.51 V 708.441 c 0,-43.242 1.32,-72.691 4.01,-88.351 2.64,-15.649 10.86,-29.379 24.67,-41.18 13.78,-11.82 33.15,-18.519 58.11,-20.109 v -18.313 h -193.06 v 18.313 c 23.09,1.32 41.87,7.629 56.33,18.898 14.47,11.289 23.29,25.141 26.46,41.59 3.2,16.461 4.79,46.973 4.79,91.582 v 234.82 c 0,43 -1.26,70.699 -3.8,83.199 -2.5,12.46 -7.81,21.07 -15.9,25.86 -8.1,4.76 -25.83,7.15 -53.11,7.15 h -14.77 v 18.31 h 164.39 l 197.83,-446.601"
         style="fill:#174935;fill-opacity:1;fill-rule:nonzero;stroke:none"
         id="path26" />
      <path
         d="m 5198.44,721.82 -79.86,192.328 -79.53,-192.328 z m 5.65,-14.949 h -171.36 l -11.64,-28.633 c -17.3,-41.488 -25.95,-68.539 -25.95,-81.168 0,-13.519 4.61,-23.808 13.81,-30.781 9.19,-7.008 21,-10.48 35.43,-10.48 v -15.321 h -134.09 v 15.321 c 19.97,3.089 34.84,10.132 44.59,21.121 9.76,11 21.51,34.09 35.28,69.371 1.11,3.32 6.44,16.179 15.97,38.597 l 131.07,313.09 h 13 l 150.71,-358.347 20.66,-47.243 c 4.63,-10.648 10.91,-19.019 18.76,-25.136 7.88,-6.102 19.69,-9.91 35.45,-11.453 v -15.321 h -177.34 v 15.321 c 21.75,0 36.42,1.601 44.07,4.812 7.68,3.199 11.49,9.59 11.49,19.129 0,4.879 -5.09,19.422 -15.3,43.602 l -34.61,83.519"
         style="fill:#174935;fill-opacity:1;fill-rule:nonzero;stroke:none"
         id="path28" />
      <path
         d="m 5553.11,773.391 c 16.62,0.449 33.79,1.14 51.56,2 17.75,0.89 33.13,3.339 46.24,7.32 13.1,4 23.69,9.82 31.79,17.48 8.1,7.661 14.46,17.68 19.13,30.098 4.65,12.43 6.98,27.731 6.98,45.922 0,31.73 -7.93,57.117 -23.77,76.199 -15.88,19.07 -50.41,28.621 -103.65,28.621 -8.23,0 -17.64,-0.453 -28.28,-1.34 z M 5894.14,540.488 H 5772.7 c -21.53,15.082 -54.45,54.571 -98.81,118.453 -14.2,20.411 -28.97,39.981 -44.25,58.719 -15.31,18.762 -25.85,30.16 -31.64,34.281 -5.75,4.11 -14.74,6.149 -26.93,6.149 h -17.96 V 657.961 c 0,-35.5 0.82,-58.742 2.5,-69.731 1.65,-10.968 6.1,-19.128 13.29,-24.429 7.21,-5.34 21,-7.992 41.43,-7.992 h 21.63 v -15.321 h -215.94 v 15.321 h 14.64 c 19.29,0 32.65,2.429 40.09,7.312 7.43,4.859 12.15,12.469 14.13,22.789 2,10.32 3,34.301 3,72.051 v 221.25 c 0,35.918 -1,59.109 -3,69.551 -1.98,10.418 -6.43,17.617 -13.31,21.617 -6.85,3.98 -21.74,5.98 -44.57,5.98 h -7.64 v 15.313 l 64.52,3.328 c 43.04,2 77.19,2.988 102.49,2.988 43.04,0 78.02,-3.976 104.96,-11.976 26.97,-7.992 48.76,-21.071 65.4,-39.282 16.64,-18.16 24.97,-39.921 24.97,-65.191 0,-29.488 -10.88,-54.687 -32.63,-75.527 -21.75,-20.864 -53.67,-33.832 -95.82,-38.934 18.85,-9.098 49.23,-41.93 91.16,-98.488 34.16,-45.918 61.01,-75.981 80.54,-90.16 19.49,-14.2 42.59,-21.758 69.19,-22.621 v -15.321"
         style="fill:#174935;fill-opacity:1;fill-rule:nonzero;stroke:none"
         id="path30" />
      <path
         d="m 6087.97,737.789 88.84,149.402 c 14.65,24.418 21.94,41.688 21.94,51.93 0,9.301 -3.87,17.84 -11.63,25.598 -7.78,7.781 -21.63,11.64 -41.59,11.64 v 15.313 h 147.39 v -15.313 c -20.42,-2.859 -36.88,-10.48 -49.4,-22.781 -12.53,-12.316 -28.57,-34.656 -48.08,-67.058 L 6094.29,717.84 v -59.91 c 0,-38.371 1.16,-62.828 3.49,-73.36 2.32,-10.531 7.3,-17.968 14.97,-22.289 7.63,-4.32 22.68,-6.472 45.08,-6.472 v -15.321 h -192.3 v 15.321 h 7.3 c 19.3,0 32.68,2.429 40.11,7.312 7.41,4.848 12.14,12.469 14.12,22.789 2,10.32 3.01,34.309 3.01,72.02 v 55.59 l -112.48,184.652 c -22.83,37.277 -38.06,59.519 -45.58,66.726 -7.54,7.192 -21.06,11.032 -40.58,11.461 v 15.313 h 182.99 v -15.313 c -34.16,0 -51.24,-7.757 -51.24,-23.3 0,-6.188 5.65,-18.618 16.98,-37.231 l 107.81,-178.039"
         style="fill:#174935;fill-opacity:1;fill-rule:nonzero;stroke:none"
         id="path32" />
      <path
         d="m 2166.71,59.5391 c -2.87,-4.2891 -6.39,-8.3399 -10.63,-12.168 -4.2,-3.832 -9.01,-7.1094 -14.41,-9.8828 -5.41,-2.7969 -11.25,-4.9688 -17.53,-6.5781 -6.3,-1.5899 -12.93,-2.3789 -19.91,-2.3789 -12.57,0 -24.21,2.2382 -34.93,6.6796 -10.76,4.4493 -20.06,10.6094 -27.92,18.4883 -7.86,7.8516 -14.03,17.211 -18.47,28.0117 -4.47,10.8204 -6.69,22.6601 -6.69,35.5391 0,12.891 2.22,24.73 6.69,35.539 4.44,10.813 10.61,20.141 18.47,28.012 7.86,7.898 17.16,14.039 27.92,18.5 10.72,4.437 22.36,6.679 34.93,6.679 10.48,0 20.98,-2.058 31.47,-6.199 10.5,-4.133 19.48,-10.98 26.96,-20.543 l -15.01,-11.179 c -1.77,2.711 -4.14,5.39 -7.17,8.101 -3.03,2.692 -6.49,5.11 -10.37,7.16 -3.91,2.059 -8.07,3.719 -12.52,5.012 -4.47,1.277 -8.91,1.898 -13.36,1.898 -10.82,0 -20.51,-1.98 -29.11,-5.96 -8.59,-3.989 -15.85,-9.282 -21.8,-15.969 -5.96,-6.692 -10.55,-14.43 -13.74,-23.262 -3.16,-8.789 -4.76,-18.078 -4.76,-27.789 0,-9.699 1.6,-18.9687 4.76,-27.7695 3.19,-8.8399 7.78,-16.6016 13.74,-23.25 5.95,-6.6914 13.21,-12.0196 21.8,-16 8.6,-3.961 18.29,-5.9688 29.11,-5.9688 4.45,0 8.87,0.4063 13.23,1.2071 4.37,0.8007 8.67,2.1523 12.88,4.0625 4.21,1.8984 8.18,4.4804 11.93,7.7382 3.72,3.2422 7.18,7.3594 10.37,12.2813 l 14.07,-10.0117"
         style="fill:#174935;fill-opacity:1;fill-rule:nonzero;stroke:none"
         id="path34" />
      <path
         d="m 2219.19,201.691 h 17.17 v -73.23 h 92.06 v 73.23 h 17.19 V 32.8398 h -17.19 v 79.8982 h -92.06 V 32.8398 h -17.17 V 201.691"
         style="fill:#174935;fill-opacity:1;fill-rule:nonzero;stroke:none"
         id="path36" />
      <path
         d="m 2437.41,92.9297 h 73.22 l -36.49,88.7113 z m -25.05,-60.0899 h -20.04 l 73.47,168.8512 h 16.7 l 73.46,-168.8512 h -20.03 l -18.62,44.3399 h -86.33 l -18.61,-44.3399"
         style="fill:#174935;fill-opacity:1;fill-rule:nonzero;stroke:none"
         id="path38" />
      <path
         d="m 2619.87,127.031 h 30.52 c 7.63,0 14.1,0.809 19.44,2.367 5.33,1.602 9.57,3.704 12.76,6.332 3.18,2.649 5.47,5.739 6.91,9.309 1.43,3.57 2.16,7.449 2.16,11.563 0,3.976 -0.73,7.757 -2.16,11.339 -1.44,3.579 -3.73,6.7 -6.91,9.411 -3.19,2.699 -7.43,4.816 -12.76,6.328 -5.34,1.5 -11.81,2.261 -19.44,2.261 h -30.52 z m 0,-94.2107 h -17.18 V 201.672 h 52.01 c 17.16,0 30.72,-3.742 40.67,-11.203 9.91,-7.481 14.89,-18.758 14.89,-33.867 0,-11.75 -3.71,-21.641 -11.09,-29.68 -7.39,-8.031 -18.09,-12.684 -32.08,-13.953 l 48.65,-80.1487 h -20.99 l -46.27,78.4807 h -28.61 V 32.8203"
         style="fill:#174935;fill-opacity:1;fill-rule:nonzero;stroke:none"
         id="path40" />
      <path
         d="m 2823.3,32.8398 h -17.17 V 185.941 h -56.54 v 15.75 h 130.23 v -15.75 H 2823.3 V 32.8398"
         style="fill:#174935;fill-opacity:1;fill-rule:nonzero;stroke:none"
         id="path42" />
      <path
         d="m 2947.09,48.5703 h 90.38 V 32.8398 H 2929.92 V 201.691 h 104.69 v -15.75 h -87.52 v -57.48 h 81.8 v -15.723 h -81.8 V 48.5703"
         style="fill:#174935;fill-opacity:1;fill-rule:nonzero;stroke:none"
         id="path44" />
      <path
         d="m 3112.36,127.031 h 30.52 c 7.62,0 14.11,0.809 19.44,2.367 5.33,1.602 9.58,3.704 12.75,6.332 3.19,2.649 5.5,5.739 6.92,9.309 1.45,3.57 2.15,7.449 2.15,11.563 0,3.976 -0.7,7.757 -2.15,11.339 -1.42,3.579 -3.73,6.7 -6.92,9.411 -3.17,2.699 -7.42,4.816 -12.75,6.328 -5.33,1.5 -11.82,2.261 -19.44,2.261 h -30.52 z m 0,-94.2107 h -17.17 V 201.672 h 52 c 17.15,0 30.71,-3.742 40.67,-11.203 9.91,-7.481 14.88,-18.758 14.88,-33.867 0,-11.75 -3.69,-21.641 -11.09,-29.68 -7.39,-8.031 -18.08,-12.684 -32.07,-13.953 l 48.66,-80.1487 h -20.98 l -46.28,78.4807 h -28.62 V 32.8203"
         style="fill:#174935;fill-opacity:1;fill-rule:nonzero;stroke:none"
         id="path46" />
      <path
         d="m 3277.64,48.5703 h 90.37 V 32.8398 H 3260.48 V 201.691 h 104.68 v -15.75 h -87.52 v -57.48 h 81.79 v -15.723 h -81.79 V 48.5703"
         style="fill:#174935;fill-opacity:1;fill-rule:nonzero;stroke:none"
         id="path48" />
      <path
         d="m 3440.53,48.5703 h 33.4 c 12.87,0 24.04,1.9414 33.47,5.8203 9.49,3.9102 17.35,9.0703 23.65,15.5196 6.27,6.4296 10.89,13.7617 13.92,21.9414 3.04,8.1874 4.53,16.6604 4.53,25.3984 0,8.73 -1.49,17.219 -4.53,25.41 -3.03,8.199 -7.65,15.5 -13.92,21.949 -6.3,6.411 -14.16,11.61 -23.65,15.481 -9.43,3.898 -20.6,5.851 -33.47,5.851 h -33.4 z m -17.17,153.1207 h 56.03 c 10.49,0 21.02,-1.75 31.62,-5.261 10.56,-3.489 20.09,-8.782 28.61,-15.86 8.51,-7.082 15.36,-15.902 20.63,-26.449 5.25,-10.59 7.87,-22.871 7.87,-36.871 0,-14.148 -2.62,-26.4609 -7.87,-36.9609 -5.27,-10.5 -12.12,-19.2774 -20.63,-26.3594 -8.52,-7.0781 -18.05,-12.3594 -28.61,-15.8711 -10.6,-3.4766 -21.13,-5.2188 -31.62,-5.2188 h -56.03 V 201.691"
         style="fill:#174935;fill-opacity:1;fill-rule:nonzero;stroke:none"
         id="path50" />
      <path
         d="m 3776.08,32.8398 h -17.13 V 180.219 l -30.33,-26.707 -10.73,12.859 42.95,35.32 h 15.24 V 32.8398"
         style="fill:#174935;fill-opacity:1;fill-rule:nonzero;stroke:none"
         id="path52" />
      <path
         d="m 3877.95,82.1992 c 0,-5.4101 0.9,-10.3281 2.72,-14.7773 1.84,-4.4531 4.44,-8.3321 7.77,-11.5703 3.34,-3.2618 7.31,-5.7813 11.93,-7.5 4.6,-1.7735 9.69,-2.6407 15.26,-2.6407 5.56,0 10.65,0.8672 15.24,2.6407 4.65,1.7187 8.59,4.2382 11.95,7.5 3.33,3.2382 5.92,7.1172 7.74,11.5703 1.82,4.4492 2.74,9.3672 2.74,14.7773 0,5.3789 -0.92,10.3321 -2.74,14.7891 -1.82,4.4527 -4.41,8.2617 -7.74,11.4527 -3.36,3.168 -7.3,5.661 -11.95,7.489 -4.59,1.84 -9.68,2.769 -15.24,2.769 -5.57,0 -10.66,-0.929 -15.26,-2.769 -4.62,-1.828 -8.59,-4.321 -11.93,-7.489 -3.33,-3.191 -5.93,-7 -7.77,-11.4527 -1.82,-4.457 -2.72,-9.4102 -2.72,-14.7891 m 17.15,46.9998 0.49,-0.5 c 2.7,1.91 6.3,3.34 10.87,4.301 4.53,0.941 8.69,1.422 12.51,1.422 7.31,0 14.12,-1.32 20.4,-3.922 6.26,-2.621 11.7,-6.262 16.34,-10.871 4.58,-4.598 8.21,-10.078 10.83,-16.449 2.63,-6.3597 3.95,-13.3597 3.95,-20.9808 0,-7.8008 -1.38,-14.8672 -4.07,-21.2383 -2.69,-6.3398 -6.53,-11.8398 -11.46,-16.4609 -4.92,-4.6016 -10.71,-8.1914 -17.39,-10.7305 -6.7,-2.5195 -14.01,-3.8007 -21.94,-3.8007 -7.95,0 -15.26,1.2812 -21.95,3.8007 -6.69,2.5391 -12.47,6.1289 -17.38,10.7305 -4.96,4.6211 -8.78,10.1211 -11.47,16.4609 -2.71,6.3711 -4.05,13.4375 -4.05,21.2383 0,9.3711 1.39,17.5508 4.15,24.5508 2.8,7.02 6.26,13.922 10.38,20.75 l 45.56,74.172 h 20.27 l -46.04,-72.473"
         style="fill:#174935;fill-opacity:1;fill-rule:nonzero;stroke:none"
         id="path54" />
      <path
         d="m 4109.77,152.309 c 0,5.421 -0.92,10.339 -2.73,14.793 -1.85,4.449 -4.43,8.257 -7.76,11.449 -3.35,3.179 -7.33,5.668 -11.93,7.519 -4.62,1.828 -9.69,2.731 -15.25,2.731 -5.58,0 -10.67,-0.903 -15.26,-2.731 -4.66,-1.851 -8.6,-4.34 -11.97,-7.519 -3.33,-3.192 -5.9,-7 -7.72,-11.449 -1.85,-4.454 -2.77,-9.372 -2.77,-14.793 0,-5.418 0.92,-10.34 2.77,-14.77 1.82,-4.461 4.39,-8.32 7.72,-11.59 3.37,-3.258 7.31,-5.75 11.97,-7.488 4.59,-1.77 9.68,-2.629 15.26,-2.629 5.56,0 10.63,0.859 15.25,2.629 4.6,1.738 8.58,4.23 11.93,7.488 3.33,3.27 5.91,7.129 7.76,11.59 1.81,4.43 2.73,9.352 2.73,14.77 m -17.17,-46.981 -0.48,0.504 c -2.71,-1.934 -6.31,-3.363 -10.84,-4.312 -4.54,-0.969 -8.73,-1.45 -12.54,-1.45 -7.31,0 -14.13,1.328 -20.39,3.95 -6.27,2.621 -11.72,6.23 -16.33,10.839 -4.63,4.629 -8.25,10.102 -10.87,16.481 -2.61,6.34 -3.92,13.351 -3.92,20.969 0,7.781 1.35,14.851 4.05,21.23 2.71,6.359 6.52,11.859 11.44,16.449 4.93,4.641 10.73,8.203 17.42,10.742 6.7,2.551 14,3.821 21.96,3.821 7.92,0 15.25,-1.27 21.92,-3.821 6.69,-2.539 12.48,-6.101 17.41,-10.742 4.94,-4.59 8.75,-10.09 11.45,-16.449 2.72,-6.379 4.05,-13.449 4.05,-21.23 0,-9.387 -1.39,-17.579 -4.17,-24.571 -2.8,-6.988 -6.26,-13.937 -10.37,-20.75 l -45.56,-74.1482 h -20.25 l 46.02,72.4882"
         style="fill:#174935;fill-opacity:1;fill-rule:nonzero;stroke:none"
         id="path56" />
      <path
         d="m 4210.65,129.199 h 8.84 c 4.92,0 9.66,0.52 14.18,1.633 4.54,1.129 8.48,2.93 11.8,5.387 3.36,2.461 6,5.679 7.99,9.672 2.01,3.949 3,8.75 3,14.281 0,9.066 -2.77,16.117 -8.23,21.109 -5.51,5.02 -13.17,7.52 -23.02,7.52 -7.14,0 -13.43,-1.59 -18.83,-4.762 -5.41,-3.18 -9.88,-7.789 -13.37,-13.84 l -15.02,7.621 c 5.1,9.078 11.55,15.789 19.43,20.16 7.86,4.379 16.97,6.571 27.32,6.571 6.68,0 12.95,-0.949 18.84,-2.86 5.88,-1.91 11.05,-4.73 15.5,-8.492 4.45,-3.73 7.99,-8.32 10.62,-13.828 2.6,-5.473 3.93,-11.691 3.93,-18.691 0,-4.629 -0.76,-8.989 -2.26,-13.129 -1.55,-4.141 -3.6,-7.86 -6.23,-11.223 -2.61,-3.328 -5.67,-6.238 -9.16,-8.68 -3.52,-2.488 -7.15,-4.347 -10.96,-5.617 l 0.68,-0.48 c 4.79,-0.949 9.17,-2.742 13.15,-5.371 3.97,-2.621 7.39,-5.852 10.26,-9.641 2.85,-3.84 5.05,-8.1288 6.67,-12.8906 1.56,-4.7773 2.38,-9.789 2.38,-15.0273 0,-7.7891 -1.43,-14.7109 -4.31,-20.75 -2.84,-6.0508 -6.76,-11.1523 -11.68,-15.2695 -4.9,-4.1328 -10.64,-7.2618 -17.15,-9.4024 -6.52,-2.1797 -13.44,-3.2304 -20.75,-3.2304 -12.43,0 -23.24,2.7031 -32.47,8.0898 -9.21,5.4023 -16.14,14.0703 -20.72,26.0117 l 18.11,5.4883 c 2.88,-8.1172 7.12,-14.1172 12.77,-18.0078 5.65,-3.9219 13.55,-5.8399 23.72,-5.8399 4.77,0 9.31,0.7774 13.6,2.3907 4.3,1.5781 8.05,3.8398 11.33,6.7773 3.26,2.9609 5.8,6.4492 7.63,10.6016 1.84,4.1484 2.75,8.6914 2.75,13.6211 0,6.3593 -1.2,11.707 -3.57,16.0898 -2.38,4.3672 -5.57,7.9106 -9.55,10.6176 -3.98,2.703 -8.54,4.66 -13.71,5.851 -5.19,1.18 -10.55,1.781 -16.09,1.781 h -7.42 v 15.758"
         style="fill:#174935;fill-opacity:1;fill-rule:nonzero;stroke:none"
         id="path58" />
      <path
         d="M 546.949,540.672 H 529.453 L 368.844,975.441 228.461,540.672 H 209.789 L 82.6211,951.328 c -11.4141,37.32 -19.6445,62.142 -24.6797,74.472 -5.0547,12.31 -11.6875,21.38 -19.8476,27.22 -8.1641,5.81 -21.7071,9.12 -40.63677,9.91 v 17.9 H 195.395 v -17.9 c -23.848,-1.54 -39.141,-4.99 -45.887,-10.31 -6.738,-5.3 -10.106,-12.76 -10.106,-22.35 0,-8.55 5.453,-30.469 16.328,-65.739 l 94.125,-307.191 137.649,423.49 h 21.777 l 154.782,-423.49 80.492,279.988 c 10.625,37.852 15.957,62.602 15.957,74.272 0,34.21 -18.285,51.33 -54.836,51.33 v 17.9 h 143.879 v -17.9 c -21.254,-1.54 -37.078,-9.39 -47.446,-23.53 -10.367,-14.12 -23.461,-48.041 -39.281,-101.701 L 546.949,540.672"
         style="fill:#174935;fill-opacity:1;fill-rule:nonzero;stroke:none"
         id="path60" />
      <path
         d="m 3501.99,2329.45 c -52.96,22.48 -109.81,54.86 -169.17,99.17 -57.9,-45.38 -111.66,-115.15 -158.61,-195.05 25.05,-38.23 50.66,-81.87 76.6,-131.7 82.16,127.17 166.93,185.2 231.97,197.24 6.32,10.34 12.71,20.48 19.21,30.34 m -99.63,-182.72 c 18.6,39.89 38.4,79.2 59.36,116.37 -22.92,-8.78 -44.28,-22.65 -64.2,-40.51 0.91,-24.87 2.53,-50.25 4.84,-75.86 m -122.49,-102.95 c 13.67,-28.48 27.42,-58.73 41.2,-90.83 10.16,26.47 20.96,53.91 32.44,81.81 -7.94,41.47 -13.87,80.2 -18.36,113.03 -20.45,-31.3 -38.84,-66.64 -55.28,-104.01 m 101.4,-128.75 c -28.65,-85.74 -48.07,-155.11 -54.66,-183.53 -1.38,-5.97 -4.95,-11.11 -11.1,-11.11 -6.14,0 -10.43,5.03 -11.13,11.11 -7.1,61.07 -27.05,142.58 -57.01,229.43 -61.65,-175.84 -86.37,-361.89 -87.33,-370.09 -0.71,-6.1 -4.92,-11.12 -11.07,-11.12 -6.12,0 -10.43,5.02 -11.14,11.12 -0.97,8.2 -25.69,194.25 -87.35,370.09 -29.96,-86.85 -49.91,-168.36 -57,-229.43 -0.71,-6.08 -5,-11.11 -11.14,-11.11 -6.12,0 -9.72,5.14 -11.1,11.11 -6.6,28.42 -25.98,97.79 -54.64,183.53 -17.03,-61.04 -39.1,-121.65 -67.84,-173.3 59.64,-38.48 117.43,-84.48 162.28,-112.39 41.4,-25.8 89.09,-53.11 137.89,-76.75 48.79,23.64 96.47,50.95 137.9,76.75 44.82,27.91 102.63,73.91 162.25,112.39 -28.73,51.65 -50.77,112.26 -67.81,173.3 M 3507.5,1746.1 c 37.13,-67.77 82.96,-112.89 136.54,-118.25 64.82,-6.47 114.09,96.53 30.56,144.36 -43.99,25.2 -104.06,7.2 -167.1,-26.11 m -358.57,-214.9 c -13.35,-6.39 -26.63,-12.45 -39.81,-18.12 13.16,-6.01 26.49,-12.15 39.81,-18.19 13.32,6.04 26.64,12.18 39.81,18.19 -13.19,5.65 -26.47,11.73 -39.81,18.12 m 92.25,-17.66 c 44.23,-15.64 86.68,-25.44 123.38,-25.44 20.74,0 40.23,13.5 40.73,34.23 0.52,22.1 -22.32,34.81 -44.42,35.2 -20.51,0.32 -65.55,-19.13 -119.69,-43.99 m -184.51,0 c -54.16,24.86 -99.19,44.31 -119.67,43.99 -22.11,-0.39 -44.95,-13.1 -44.42,-35.2 0.48,-20.73 19.95,-34.23 40.71,-34.23 36.69,0 79.15,9.8 123.38,25.44 m -266.3,232.56 c -63.03,33.31 -123.13,51.31 -167.11,26.11 -83.52,-47.83 -34.24,-150.83 30.54,-144.36 53.58,5.36 99.43,50.48 136.57,118.25 m 105.11,400.63 c 2.35,25.61 3.94,50.99 4.85,75.86 -19.9,17.86 -41.27,31.73 -64.19,40.51 20.94,-37.17 40.76,-76.48 59.34,-116.37 m 48.89,-111.97 c 11.45,-27.9 22.27,-55.34 32.43,-81.81 13.79,32.1 27.51,62.35 41.2,90.83 -16.45,37.37 -34.83,72.71 -55.3,104.01 -4.48,-32.83 -10.4,-71.56 -18.33,-113.03 m 137.25,9.08 c 23.06,-41.93 45.67,-89.72 67.31,-143.96 21.63,54.24 44.23,102.03 67.32,143.96 -19.83,48.87 -42.43,97.89 -67.32,144.57 -24.9,-46.68 -47.5,-95.7 -67.31,-144.57 m -285.76,285.61 c 6.51,-9.86 12.89,-20 19.2,-30.34 65.06,-12.04 149.82,-70.07 231.98,-197.21 25.95,49.8 51.57,93.44 76.61,131.67 -46.97,79.9 -100.71,149.67 -158.63,195.05 -59.34,-44.31 -116.19,-76.69 -169.16,-99.17 m -60.71,1.85 c -55.23,89.72 -115.53,152.6 -175.77,152.6 -53.66,0 -86.06,-37.01 -86.06,-86.05 0,-51.26 96.75,-115.38 261.83,-66.55 m 827.56,0 c 165.1,-48.83 261.81,15.29 261.81,66.55 0,49.04 -32.39,86.05 -86.06,86.05 -60.2,0 -120.51,-62.88 -175.75,-152.6 m -659.28,135.11 c -25.03,11.08 -50.6,17.13 -76.57,17.13 -35.61,0 -55.89,-10.25 -55.89,-25.75 0,-14.47 28.93,-20.24 48.49,-20.24 24.95,0 50.7,9.58 83.97,28.86 m 490.99,0 c 33.29,-19.28 59.02,-28.86 83.99,-28.86 19.54,0 48.48,5.77 48.48,20.24 0,15.5 -20.28,25.75 -55.89,25.75 -25.97,0 -51.54,-6.05 -76.58,-17.13 m 156.21,-155.28 c -2.59,-4.47 -5.19,-9 -7.77,-13.58 50.49,-11.79 90.08,-48.99 90.08,-100.53 0,-101.09 -70.31,-123.09 -134.16,-123.09 -6.14,0 -11.11,4.96 -11.11,11.11 0,6.13 4.97,11.1 11.11,11.1 52.82,0 103.64,26.84 103.64,99.02 0,49.33 -43.8,73.07 -73.05,77.78 -41.32,-77.48 -78.9,-166.8 -110.27,-250.84 16.66,-93.24 42.38,-182.5 76.3,-252.5 42.47,23.37 84.4,39.65 121.83,39.65 70.46,0 142.03,-51.64 131.41,-120.33 -8.3,-53.62 -51.27,-92.03 -105.49,-90.69 -78.13,1.93 -136.87,51.15 -181.2,121.75 -59.09,-36.22 -118.02,-79.89 -166.3,-108.72 -40.53,-24.19 -82.6,-48.07 -124.51,-69.13 13.99,-6.4 28,-12.45 41.93,-18 60.6,27.29 116.01,50.04 151.49,50.04 33.95,0 70.17,-13.73 73.89,-47.87 4.18,-38.33 -29.47,-58.57 -80.36,-57.63 -42.69,0.77 -91.22,13.46 -142.08,33.24 -13.3,-6.14 -26.92,-12.48 -40.77,-18.82 63.24,-27.93 124.41,-51.43 168.04,-51.43 6.14,0 11.11,-4.98 11.11,-11.11 0,-6.14 -5.01,-11.12 -11.16,-11.12 -47.54,0 -121.63,29.26 -194.3,61.77 -72.68,-32.51 -146.78,-61.77 -194.31,-61.77 -6.14,0 -11.14,4.98 -11.14,11.12 0,6.13 4.96,11.11 11.1,11.11 43.61,0 104.79,23.5 168.02,51.43 -13.82,6.34 -27.47,12.68 -40.73,18.82 -50.88,-19.78 -99.41,-32.47 -142.1,-33.24 -50.91,-0.94 -84.53,19.3 -80.33,57.63 3.7,34.14 39.93,47.87 73.85,47.87 35.47,0 90.9,-22.75 151.5,-50.04 13.94,5.55 27.94,11.6 41.92,18 -41.89,21.06 -83.98,44.94 -124.51,69.13 -48.28,28.83 -107.2,72.5 -166.29,108.72 -44.34,-70.6 -103.08,-119.82 -181.18,-121.75 -54.24,-1.34 -97.21,37.07 -105.51,90.69 -10.62,68.69 60.94,120.33 131.41,120.33 37.43,0 79.37,-16.28 121.83,-39.65 33.91,70 59.62,159.26 76.29,252.5 -31.37,84.04 -68.95,173.36 -110.24,250.84 -29.28,-4.71 -73.06,-28.45 -73.06,-77.78 0,-72.18 50.8,-99.02 103.65,-99.02 6.11,0 11.1,-4.97 11.1,-11.1 0,-6.15 -4.99,-11.11 -11.1,-11.11 -63.86,0 -134.2,22 -134.2,123.09 0,51.54 39.61,88.74 90.1,100.53 -2.59,4.58 -5.18,9.11 -7.78,13.58 -183.27,-60.02 -309.05,2.16 -309.05,86.72 0,88.85 80.5,111.99 121.21,111.99 82.6,0 157.82,-66.63 223.9,-161.76 50.07,20.04 105.39,50 165.3,92.69 -8.36,5.8 -16.8,11.04 -25.3,15.75 -29.92,-19.51 -66.99,-38.81 -103.88,-38.81 -50.87,0 -69.18,26.2 -69.18,39.59 0,13.94 7.21,43.82 76.64,43.82 20.42,0 53.65,-3.77 96.06,-22.87 9.06,5.72 18.68,12.04 28.95,18.97 1.47,0.94 2.99,1.48 4.78,1.48 4.68,0 8.47,-3.79 8.47,-8.45 0,-2.87 -1.42,-5.38 -3.59,-6.9 -5.83,-4.18 -12.5,-9.08 -19.86,-14.28 8.21,-4.33 16.7,-9.23 25.47,-14.76 8.59,6.42 17.28,13.06 26.03,19.99 1.56,1.22 3.64,2.02 5.82,2.02 5.12,0 9.26,-4.14 9.26,-9.25 0,-2.74 -1.09,-5.3 -3.07,-6.91 -7.1,-5.87 -14.19,-11.53 -21.22,-17.05 48.84,-34.19 104.98,-88.04 164.97,-172.47 60,84.43 116.12,138.28 164.98,172.47 -7.05,5.52 -14.12,11.18 -21.23,17.05 -1.96,1.61 -3.08,4.17 -3.08,6.91 0,5.11 4.15,9.25 9.26,9.25 2.19,0 4.27,-0.8 5.82,-2.02 8.78,-6.92 17.46,-13.57 26.04,-19.99 8.76,5.53 17.25,10.43 25.46,14.76 -7.35,5.2 -14.03,10.1 -19.85,14.28 -2.17,1.52 -3.58,4.03 -3.58,6.9 0,4.66 3.76,8.45 8.45,8.45 1.79,0 3.32,-0.54 4.81,-1.48 10.25,-6.93 19.85,-13.25 28.92,-18.97 42.4,19.1 75.64,22.87 96.07,22.87 69.42,0 76.65,-29.88 76.65,-43.82 0,-13.39 -18.3,-39.59 -69.19,-39.59 -36.88,0 -73.96,19.3 -103.89,38.81 -8.5,-4.71 -16.91,-9.95 -25.29,-15.75 59.91,-42.69 115.22,-72.65 165.3,-92.69 66.08,95.13 141.29,161.76 223.88,161.76 40.76,0 121.25,-23.14 121.25,-111.99 0,-84.56 -125.79,-146.74 -309.08,-86.72 m -413.74,471.72 c 0,-6.63 5.4,-12.03 12.04,-12.03 6.63,0 12.02,5.4 12.02,12.03 0,6.63 -5.39,12.03 -12.02,12.03 -6.64,0 -12.04,-5.4 -12.04,-12.03 m -22.64,-17.59 c -2.68,5.28 -4.2,11.25 -4.2,17.59 0,6.33 1.52,12.3 4.2,17.58 l 20.52,-7.21 c 1.06,1.46 2.35,2.73 3.77,3.8 l -7.19,20.51 c 5.27,2.66 11.25,4.2 17.58,4.2 6.33,0 12.31,-1.54 17.57,-4.2 l -7.17,-20.51 c 1.43,-1.07 2.69,-2.34 3.76,-3.8 l 20.5,7.21 c 2.69,-5.28 4.21,-11.25 4.21,-17.58 0,-6.34 -1.52,-12.31 -4.21,-17.59 l -20.5,7.21 c -1.07,-1.45 -2.33,-2.74 -3.76,-3.78 l 7.17,-20.53 c -5.26,-2.68 -11.24,-4.17 -17.57,-4.17 -6.33,0 -12.31,1.49 -17.58,4.17 l 7.19,20.54 c -1.42,1.03 -2.71,2.32 -3.77,3.77 z m 205.78,-113.05 c -1.48,24.34 -14.58,41.24 -20.69,45.61 -31.62,22.59 -72.88,-0.72 -106.06,-19.43 -18.44,-10.41 -33,-18.63 -44.35,-18.63 -11.36,0 -25.92,8.22 -44.35,18.63 -33.15,18.71 -74.43,42 -106.06,19.43 -6.12,-4.37 -19.22,-21.27 -20.71,-45.61 -1.91,-31.54 15.82,-65.85 51.32,-99.46 6.28,0.64 11.23,2.18 15.32,4.07 -48.48,37.92 -59.53,70.97 -60.06,92.37 -0.42,17.43 6.14,33.4 17.49,42.69 9.43,7.71 24.79,10.46 41.08,7.37 19.54,-3.71 57.35,-19.31 93.5,-81.71 0.67,0.66 1.37,1.26 2.13,1.8 l -7.24,20.49 c 5.27,2.69 11.25,4.19 17.58,4.19 6.33,0 12.31,-1.5 17.57,-4.19 l -7.17,-20.52 c 0.73,-0.53 1.43,-1.13 2.08,-1.77 36.16,62.4 73.94,78 93.5,81.71 16.28,3.09 31.63,0.34 41.06,-7.37 11.37,-9.29 17.92,-25.24 17.5,-42.69 -0.51,-21.4 -11.59,-54.45 -60.07,-92.37 4.11,-1.89 9.04,-3.43 15.32,-4.07 35.51,33.61 53.24,67.92 51.31,99.46 m -209.98,-47.05 c 0,6.34 1.52,12.31 4.2,17.59 l 7.78,-2.74 c -32.33,51.88 -64.31,65.13 -81.16,68.31 -15.42,2.94 -26.62,-0.69 -31.96,-5.03 -6.74,-5.52 -13.81,-17.3 -13.4,-33.84 0.46,-19.45 11.22,-50.07 59.08,-86.43 4.11,2.97 7.51,5.66 11.6,6.61 -3.56,1.28 -6.11,4.68 -6.11,8.69 0,3.12 1.56,5.88 3.93,7.57 -2.71,4.24 -6.29,6.77 -9.48,6.77 -4.74,0 -8.08,-5.19 -9.15,-14.27 -0.07,-0.41 -0.39,-0.73 -0.78,-0.78 -0.41,-0.09 -0.81,0.12 -0.99,0.48 -6.45,13.23 -4.79,20.87 -2.22,24.96 2.48,3.97 6.88,6.25 12.07,6.25 2.67,0 5.32,-0.6 7.72,-1.76 -4.96,10.61 -9.2,23.54 7.54,38.75 0.33,0.32 0.88,0.32 1.24,0 16.75,-15.21 12.49,-28.14 7.56,-38.75 2.38,1.16 5.04,1.76 7.7,1.76 5.18,0 9.59,-2.28 12.09,-6.25 2.52,-4.09 4.21,-11.73 -2.24,-24.96 -0.18,-0.36 -0.58,-0.57 -0.99,-0.48 -0.41,0.05 -0.73,0.37 -0.75,0.78 -1.11,9.08 -4.45,14.27 -9.18,14.27 -3.2,0 -6.77,-2.53 -9.5,-6.77 2.38,-1.69 3.93,-4.45 3.93,-7.57 0,-3.94 -2.44,-7.29 -5.9,-8.62 9.29,-1.76 8.71,-10.82 26.27,-10.82 23.14,0 39.59,32.05 39.59,32.05 h 0.07 c -1.47,1.09 -2.76,2.37 -3.84,3.83 l -20.52,-7.19 c -2.68,5.27 -4.2,11.25 -4.2,17.59 m 38.88,-12.03 c 6.63,0 12.02,5.38 12.02,12.03 0,6.63 -5.39,12.04 -12.02,12.04 -6.64,0 -12.04,-5.41 -12.04,-12.04 0,-6.65 5.4,-12.03 12.04,-12.03 m 94.33,-30.11 c 47.88,36.36 58.62,66.99 59.1,86.43 0.39,16.54 -6.67,28.32 -13.41,33.84 -5.35,4.34 -16.54,7.97 -31.97,5.03 -16.84,-3.18 -48.84,-16.43 -81.17,-68.33 l 7.78,2.76 c 2.69,-5.28 4.21,-11.25 4.21,-17.59 0,-6.34 -1.52,-12.32 -4.21,-17.59 l -20.5,7.2 c -1.09,-1.47 -2.38,-2.75 -3.85,-3.84 h 0.1 c 0,0 16.41,-32.05 39.57,-32.05 17.55,0 16.99,9.06 26.28,10.82 -3.47,1.33 -5.92,4.68 -5.92,8.62 0,3.12 1.55,5.88 3.92,7.57 -2.71,4.24 -6.29,6.77 -9.48,6.77 -4.74,0 -8.08,-5.19 -9.17,-14.27 -0.05,-0.41 -0.37,-0.73 -0.75,-0.78 -0.44,-0.09 -0.81,0.12 -1,0.48 -6.45,13.23 -4.78,20.87 -2.22,24.96 2.48,3.97 6.88,6.25 12.07,6.25 2.68,0 5.33,-0.6 7.72,-1.76 -4.94,10.61 -9.2,23.54 7.53,38.75 0.36,0.32 0.89,0.32 1.25,0 16.74,-15.21 12.49,-28.14 7.54,-38.75 2.4,1.16 5.06,1.76 7.71,1.76 5.19,0 9.59,-2.28 12.07,-6.25 2.55,-4.09 4.23,-11.73 -2.2,-24.96 -0.19,-0.36 -0.58,-0.57 -1,-0.48 -0.39,0.05 -0.72,0.37 -0.75,0.78 -1.1,9.08 -4.45,14.27 -9.16,14.27 -3.21,0 -6.79,-2.53 -9.51,-6.77 2.36,-1.69 3.93,-4.45 3.93,-7.57 0,-4.01 -2.55,-7.41 -6.1,-8.69 4.09,-0.95 7.48,-3.64 11.59,-6.61 m 18.66,-52.27 -0.73,5.65 c -0.4,-0.06 -0.8,-0.08 -1.19,-0.08 -5.13,0 -9.27,4.14 -9.27,9.24 0,4.71 3.53,8.59 8.05,9.17 l -0.73,5.64 h -109.12 -0.34 -108.77 l -0.74,-5.64 c 4.54,-0.58 8.05,-4.46 8.05,-9.17 0,-5.1 -4.16,-9.24 -9.26,-9.24 -0.41,0 -0.82,0.02 -1.2,0.08 l -0.74,-5.65 h 106.38 v 0.02 h 11.66 v -0.02 z m 86.61,129.14 c -0.29,-5.11 -4.62,-9.02 -9.75,-8.76 -3.75,0.19 -6.85,2.62 -8.13,5.92 -2.82,-23.94 -15.85,-56.03 -54.51,-92.55 2.8,-29.89 10.14,-39.61 10.14,-45.76 0,-5.13 -4.16,-9.26 -9.25,-9.26 h -128.1 -0.34 -127.74 c -5.12,0 -9.26,4.13 -9.26,9.26 0,6.15 7.32,15.87 10.13,45.76 -38.76,36.61 -51.76,68.78 -54.54,92.71 -1.2,-3.39 -4.37,-5.89 -8.21,-6.08 -5.12,-0.26 -9.46,3.65 -9.72,8.76 -0.28,5.1 3.65,9.44 8.75,9.72 3.69,0.2 7,-1.82 8.64,-4.88 -0.11,2.86 -0.06,5.59 0.09,8.16 0.22,3.38 0.61,6.61 1.15,9.74 -2.14,-2.83 -5.78,-4.28 -9.45,-3.44 -4.97,1.14 -8.1,6.1 -6.94,11.08 1.16,4.99 6.12,8.1 11.11,6.93 3.61,-0.82 6.22,-3.68 6.94,-7.07 1.72,6.3 4.01,11.84 6.53,16.61 -2.9,-2.04 -6.86,-2.31 -10.09,-0.38 -4.38,2.63 -5.81,8.34 -3.16,12.72 2.63,4.37 8.31,5.78 12.69,3.15 3.2,-1.91 4.82,-5.48 4.43,-8.96 4.24,6.43 8.58,10.83 11.39,13.03 -3.62,-0.57 -7.37,1.05 -9.36,4.38 -2.61,4.37 -1.21,10.05 3.17,12.69 4.39,2.62 10.07,1.21 12.7,-3.17 1.88,-3.15 1.68,-6.96 -0.21,-9.83 5.29,2.99 10.71,5.04 16.23,6.28 -3.41,0.98 -6.11,3.87 -6.64,7.62 -0.72,5.05 2.81,9.74 7.88,10.46 5.05,0.71 9.74,-2.83 10.45,-7.88 0.5,-3.63 -1.17,-7.07 -4.01,-8.97 5.83,0.57 11.75,0.33 17.67,-0.51 -3.02,2.02 -4.68,5.7 -3.95,9.49 0.98,5.01 5.82,8.27 10.85,7.31 5.01,-0.99 8.3,-5.83 7.32,-10.84 -0.72,-3.69 -3.53,-6.42 -6.95,-7.24 5.84,-1.27 11.67,-3.05 17.42,-5.18 -2.34,2.54 -3.15,6.3 -1.78,9.72 1.93,4.73 7.33,7.02 12.05,5.12 4.76,-1.93 7.03,-7.3 5.13,-12.06 -1.38,-3.38 -4.53,-5.51 -7.93,-5.74 5.63,-2.4 11.13,-5.03 16.5,-7.8 -2,2.78 -2.38,6.55 -0.66,9.75 2.39,4.54 8,6.23 12.5,3.83 4.52,-2.37 6.23,-8 3.83,-12.5 -1.69,-3.19 -4.99,-4.99 -8.38,-4.91 5.15,-2.78 10.15,-5.59 14.86,-8.25 15.66,-8.86 30.47,-17.2 38.91,-17.2 8.45,0 23.24,8.34 38.89,17.2 4.75,2.66 9.72,5.47 14.88,8.25 -3.4,-0.11 -6.77,1.68 -8.48,4.91 -2.39,4.5 -0.68,10.13 3.84,12.5 4.51,2.4 10.12,0.71 12.52,-3.83 1.71,-3.23 1.3,-7.04 -0.74,-9.81 5.4,2.77 10.95,5.45 16.63,7.86 -3.45,0.19 -6.61,2.33 -8,5.74 -1.92,4.76 0.36,10.13 5.11,12.06 4.76,1.9 10.13,-0.39 12.06,-5.12 1.39,-3.45 0.54,-7.24 -1.83,-9.77 5.8,2.14 11.64,3.93 17.52,5.21 -3.46,0.81 -6.26,3.56 -6.97,7.26 -1,5.01 2.27,9.85 7.31,10.84 5.02,0.96 9.87,-2.3 10.84,-7.31 0.73,-3.79 -0.95,-7.48 -3.97,-9.49 5.91,0.84 11.84,1.08 17.66,0.52 -2.82,1.91 -4.49,5.33 -3.98,8.96 0.69,5.05 5.4,8.59 10.45,7.88 5.06,-0.72 8.59,-5.41 7.89,-10.46 -0.53,-3.73 -3.22,-6.61 -6.6,-7.6 5.47,-1.23 10.87,-3.28 16.11,-6.21 -1.84,2.86 -2,6.64 -0.15,9.74 2.65,4.38 8.32,5.79 12.7,3.17 4.39,-2.64 5.81,-8.32 3.18,-12.69 -1.98,-3.3 -5.68,-4.9 -9.25,-4.41 2.81,-2.18 7.06,-6.51 11.27,-12.82 -0.32,3.41 1.28,6.9 4.44,8.78 4.36,2.63 10.05,1.22 12.7,-3.15 2.63,-4.38 1.21,-10.09 -3.15,-12.72 -3.2,-1.9 -7.09,-1.66 -9.98,0.3 2.47,-4.71 4.72,-10.17 6.43,-16.34 0.78,3.3 3.34,6.08 6.93,6.88 4.95,1.17 9.94,-1.94 11.08,-6.93 1.15,-4.98 -1.94,-9.94 -6.93,-11.08 -3.6,-0.83 -7.2,0.55 -9.34,3.28 0.54,-3.07 0.92,-6.25 1.11,-9.58 0.17,-2.51 0.22,-5.19 0.14,-7.96 1.64,2.95 4.89,4.87 8.52,4.68 5.09,-0.28 9.02,-4.62 8.76,-9.72 m -195.89,98.3 v -25.68 h 25.68 c -1.67,13.4 -12.28,24.01 -25.68,25.68 m -3.71,-59 c 15.09,0 27.57,11.3 29.39,25.9 h -58.77 c 1.81,-14.6 14.28,-25.9 29.38,-25.9 m -29.38,33.32 h 25.68 v 25.68 c -13.39,-1.67 -24.01,-12.28 -25.68,-25.68 m 96.02,-177.7 c -5.11,0 -9.27,-4.14 -9.27,-9.25 0,-5.1 4.16,-9.24 9.27,-9.24 5.09,0 9.24,4.14 9.24,9.24 0,5.11 -4.15,9.25 -9.24,9.25 m -44.43,0 c -5.1,0 -9.25,-4.14 -9.25,-9.25 0,-5.1 4.15,-9.24 9.25,-9.24 5.1,0 9.26,4.14 9.26,9.24 0,5.11 -4.16,9.25 -9.26,9.25 m -44.43,0 c -5.11,0 -9.24,-4.14 -9.24,-9.25 0,-5.1 4.13,-9.24 9.24,-9.24 5.12,0 9.26,4.14 9.26,9.24 0,5.11 -4.14,9.25 -9.26,9.25 m -35.16,-9.25 c 0,-5.1 -4.13,-9.24 -9.26,-9.24 -5.11,0 -9.25,4.14 -9.25,9.24 0,5.11 4.14,9.25 9.25,9.25 5.13,0 9.26,-4.14 9.26,-9.25"
         style="fill:#b38f49;fill-opacity:1;fill-rule:nonzero;stroke:none"
         id="path62" />
    </g>
  </g>
</svg>
